<svg height="512" viewBox="0 0 25 25" width="512" xmlns="http://www.w3.org/2000/svg"><g id="Delete" fill="rgb(0,0,0)"><path d="m17.5 22h-10a1.5 1.5 0 0 1 -1.5-1.5v-12a.5.5 0 0 1 1 0v12a.5.5 0 0 0 .5.5h10a.5.5 0 0 0 .5-.5v-12a.5.5 0 0 1 1 0v12a1.5 1.5 0 0 1 -1.5 1.5z"/><path d="m19.5 9h-14a.5.5 0 0 1 -.5-.5v-2a1.5 1.5 0 0 1 1.5-1.5h12a1.5 1.5 0 0 1 1.5 1.5v2a.5.5 0 0 1 -.5.5zm-13.5-1h13v-1.5a.5.5 0 0 0 -.5-.5h-12a.5.5 0 0 0 -.5.5z"/><path d="m14.5 6a.5.5 0 0 1 -.5-.5v-1a.5.5 0 0 0 -.5-.5h-2a.5.5 0 0 0 -.5.5v1a.5.5 0 0 1 -1 0v-1a1.5 1.5 0 0 1 1.5-1.5h2a1.5 1.5 0 0 1 1.5 1.5v1a.5.5 0 0 1 -.5.5z"/><path d="m10.5 19a.5.5 0 0 1 -.5-.5v-7a.5.5 0 0 1 1 0v7a.5.5 0 0 1 -.5.5z"/><path d="m14.5 19a.5.5 0 0 1 -.5-.5v-7a.5.5 0 0 1 1 0v7a.5.5 0 0 1 -.5.5z"/></g></svg>